<mxfile host="app.diagrams.net" modified="2023-04-07T08:37:07.586Z" agent="Mozilla/5.0 (Windows NT 10.0; Win64; x64) AppleWebKit/537.36 (KHTML, like Gecko) Chrome/112.0.0.0 Safari/537.36" etag="rnLAa_K9dHwJuZu7IRx6" version="21.1.5" type="device">
  <diagram name="Page-1" id="T1H7ASC2bqAVp760AlKh">
    <mxGraphModel dx="819" dy="455" grid="1" gridSize="10" guides="1" tooltips="1" connect="1" arrows="1" fold="1" page="1" pageScale="1" pageWidth="850" pageHeight="1100" math="0" shadow="0">
      <root>
        <mxCell id="0" />
        <mxCell id="1" parent="0" />
        <mxCell id="qHCrV-rGGlypP9JFNb7a-2" value="" style="rounded=0;whiteSpace=wrap;html=1;direction=south;" vertex="1" parent="1">
          <mxGeometry x="300" y="70" width="240" height="400" as="geometry" />
        </mxCell>
        <mxCell id="qHCrV-rGGlypP9JFNb7a-3" value="" style="rounded=0;whiteSpace=wrap;html=1;rotation=120;" vertex="1" parent="1">
          <mxGeometry x="420" y="260" width="35" height="20" as="geometry" />
        </mxCell>
        <mxCell id="qHCrV-rGGlypP9JFNb7a-6" value="1" style="curved=1;endArrow=classic;html=1;rounded=0;" edge="1" parent="1">
          <mxGeometry width="50" height="50" relative="1" as="geometry">
            <mxPoint x="445" y="295" as="sourcePoint" />
            <mxPoint x="445" y="245" as="targetPoint" />
            <Array as="points">
              <mxPoint x="445" y="295" />
              <mxPoint x="405" y="305" />
              <mxPoint x="395" y="260" />
              <mxPoint x="425" y="235" />
            </Array>
          </mxGeometry>
        </mxCell>
        <mxCell id="qHCrV-rGGlypP9JFNb7a-7" value="2" style="endArrow=classic;html=1;rounded=0;" edge="1" parent="1">
          <mxGeometry width="50" height="50" relative="1" as="geometry">
            <mxPoint x="440" y="269.71" as="sourcePoint" />
            <mxPoint x="480" y="270" as="targetPoint" />
          </mxGeometry>
        </mxCell>
        <mxCell id="qHCrV-rGGlypP9JFNb7a-8" value="" style="endArrow=classic;html=1;rounded=0;" edge="1" parent="1">
          <mxGeometry width="50" height="50" relative="1" as="geometry">
            <mxPoint x="480" y="270" as="sourcePoint" />
            <mxPoint x="480" y="130" as="targetPoint" />
          </mxGeometry>
        </mxCell>
        <mxCell id="qHCrV-rGGlypP9JFNb7a-10" value="3" style="edgeLabel;html=1;align=center;verticalAlign=middle;resizable=0;points=[];" vertex="1" connectable="0" parent="qHCrV-rGGlypP9JFNb7a-8">
          <mxGeometry x="-0.2755" relative="1" as="geometry">
            <mxPoint as="offset" />
          </mxGeometry>
        </mxCell>
        <mxCell id="qHCrV-rGGlypP9JFNb7a-9" value="4" style="endArrow=classic;html=1;rounded=0;" edge="1" parent="1">
          <mxGeometry width="50" height="50" relative="1" as="geometry">
            <mxPoint x="480" y="130" as="sourcePoint" />
            <mxPoint x="510" y="100" as="targetPoint" />
          </mxGeometry>
        </mxCell>
      </root>
    </mxGraphModel>
  </diagram>
</mxfile>
